<?xml version="1.0" standalone="no"?>
<!DOCTYPE svg PUBLIC "-//W3C//DTD SVG 20010904//EN"
 "http://www.w3.org/TR/2001/REC-SVG-20010904/DTD/svg10.dtd">
<svg version="1.0" xmlns="http://www.w3.org/2000/svg"
 width="260.000000pt" height="260.000000pt" viewBox="0 0 260.000000 260.000000"
 preserveAspectRatio="xMidYMid meet">
<metadata>
Created by potrace 1.11, written by Peter Selinger 2001-2013
</metadata>
<g transform="translate(0.000000,260.000000) scale(0.100000,-0.100000)"
fill="#000000" stroke="none">
<path d="M716 2422 c2 -31 5 -86 8 -122 3 -36 8 -105 11 -155 3 -49 8 -112 10
-140 2 -27 7 -93 10 -146 3 -55 14 -117 24 -145 62 -165 158 -393 176 -419 67
-92 72 -110 71 -255 l-1 -135 -100 -52 c-55 -28 -109 -52 -120 -52 -20 -1 -20
-7 -19 -388 1 -214 2 -391 3 -395 0 -5 228 -8 506 -8 l505 0 1 33 c1 17 0 37
-1 42 -1 6 -1 30 0 55 1 25 1 51 1 58 -1 17 -1 28 -2 217 0 209 1 247 7 256 2
4 0 10 -6 14 -6 4 -8 11 -5 16 4 5 7 29 8 54 2 37 -1 45 -16 45 -14 0 -211 92
-226 106 -2 1 -3 64 -3 138 l0 134 55 94 c66 110 207 463 213 528 1 25 5 81 8
125 9 143 16 239 21 295 14 164 17 262 6 256 -6 -4 -11 -12 -11 -18 0 -6 -20
-44 -45 -84 -25 -39 -45 -74 -45 -78 0 -3 -20 -37 -45 -76 -25 -39 -45 -74
-45 -79 0 -5 -7 -14 -15 -21 -8 -6 -13 -15 -12 -18 1 -4 -6 -18 -15 -31 l-17
-24 -38 34 c-21 18 -45 39 -53 45 -8 7 -30 25 -49 40 -19 16 -41 30 -50 32
-22 4 -102 4 -126 -1 -11 -2 -34 -1 -52 4 -18 4 -35 3 -38 -1 -2 -4 -15 -5
-28 -3 -18 4 -41 -10 -98 -59 -41 -34 -80 -69 -88 -76 -17 -17 -28 -7 -62 58
-13 25 -28 49 -32 55 -17 22 -117 198 -117 206 0 5 -3 9 -7 9 -5 0 -17 18 -27
41 -28 58 -34 56 -30 -9z"/>
</g>
</svg>
